<svg xmlns="http://www.w3.org/2000/svg" viewBox="0 0 400 400"><g transform="translate(0 -722.52)"><path style="opacity:1;vector-effect:none;fill:#fff;fill-opacity:1;stroke:#4a90d9;stroke-width:3;stroke-linecap:square;stroke-linejoin:miter;stroke-miterlimit:4;stroke-dasharray:none;stroke-dashoffset:0;stroke-opacity:1;marker:none;paint-order:normal" d="M133.461 984.057h49.515v50.271h-49.515z"/><path transform="matrix(.84866 .52894 -.53576 .84437 0 0)" style="opacity:1;vector-effect:none;fill:#fff;fill-opacity:1;stroke:#4a90d9;stroke-width:3.00004888;stroke-linecap:square;stroke-linejoin:miter;stroke-miterlimit:4;stroke-dasharray:none;stroke-dashoffset:0;stroke-opacity:1;marker:none;paint-order:normal" d="M618.781 747.799h21.149v80.931h-21.149z"/><circle r="40.357" cy="868.234" cx="143.571" style="opacity:1;vector-effect:none;fill:#fff;fill-opacity:1;stroke:#4a90d9;stroke-width:3;stroke-linecap:square;stroke-linejoin:miter;stroke-miterlimit:4;stroke-dasharray:none;stroke-dashoffset:0;stroke-opacity:1;marker:none;paint-order:normal"/><g style="font-style:normal;font-variant:normal;font-weight:400;font-stretch:normal;font-size:63.67200089px;line-height:1.25;font-family:'Source Sans Pro';-inkscape-font-specification:'Source Sans Pro, Normal';font-variant-ligatures:normal;font-variant-caps:normal;font-variant-numeric:normal;font-feature-settings:normal;text-align:start;letter-spacing:0;word-spacing:0;writing-mode:lr-tb;text-anchor:start;fill:#4a90d9;fill-opacity:1;stroke:none;stroke-width:1" aria-label="?"><path style="font-style:normal;font-variant:normal;font-weight:400;font-stretch:normal;font-size:63.67200089px;font-family:'Source Sans Pro';-inkscape-font-specification:'Source Sans Pro, Normal';font-variant-ligatures:normal;font-variant-caps:normal;font-variant-numeric:normal;font-feature-settings:normal;text-align:start;writing-mode:lr-tb;text-anchor:start;stroke-width:1" d="M142.514 875.7h4.584c-1.019-8.914 9.232-12.289 9.232-20.63 0-6.303-4.33-10.187-10.888-10.187-4.52 0-8.022 2.228-10.696 5.284l2.992 2.738c1.974-2.292 4.52-3.693 7.322-3.693 4.075 0 6.177 2.802 6.177 6.177 0 6.749-10.124 10.378-8.723 20.31zm-1.338 9.423c0 2.293 1.656 3.948 3.757 3.948s3.82-1.655 3.82-3.948c0-2.42-1.719-4.075-3.82-4.075s-3.757 1.656-3.757 4.075z"/></g><circle style="opacity:1;vector-effect:none;fill:#fff;fill-opacity:1;stroke:#4a90d9;stroke-width:3;stroke-linecap:square;stroke-linejoin:miter;stroke-miterlimit:4;stroke-dasharray:none;stroke-dashoffset:0;stroke-opacity:1;marker:none;paint-order:normal" cx="213.143" cy="871.091" r="8.929"/><circle r="4.643" cy="880.948" cx="248.643" style="opacity:1;vector-effect:none;fill:#fff;fill-opacity:1;stroke:#4a90d9;stroke-width:3;stroke-linecap:square;stroke-linejoin:miter;stroke-miterlimit:4;stroke-dasharray:none;stroke-dashoffset:0;stroke-opacity:1;marker:none;paint-order:normal"/><path d="M261.124 904.074s18.183-20.455 31.315-18.435c13.132 2.02 16.415 17.678 16.415 23.738 0 6.061.758 18.94.758 18.94s26.011 19.194 26.264 26.517c.252 7.324-4.04 19.698-9.344 24.244-5.303 4.546-6.314 6.06-6.314 6.06l-.757 47.73-60.357 2.02s11.87-13.384 11.87-14.899c0-1.515-1.516-13.637-1.516-13.637l-6.818 3.788 2.273-19.445s-18.94-4.293-18.688-21.466c.252-17.173 27.526-37.88 27.526-37.88v-28.032z" style="fill:#fff;stroke:none;stroke-width:1px;stroke-linecap:butt;stroke-linejoin:miter;stroke-opacity:1;fill-opacity:1"/><path d="M300.625 993.234s35.311-5.326 35.311-32.786c0-19.517-26.65-32.214-26.65-32.214-.125-16.5 2.857-42.17-19.804-42.17-19.286 0-26.982 17.527-26.982 17.527h11.429v27.5s-28.215 23.929-27.5 39.643c.714 15.714 23.928 22.679 23.928 22.679" style="opacity:1;vector-effect:none;fill:none;fill-opacity:1;stroke:#4a90d9;stroke-width:3;stroke-linecap:square;stroke-linejoin:miter;stroke-miterlimit:4;stroke-dasharray:none;stroke-dashoffset:0;stroke-opacity:1;marker:none;paint-order:normal"/><circle style="opacity:1;vector-effect:none;fill:#fff;fill-opacity:1;stroke:#4a90d9;stroke-width:2.99999976;stroke-linecap:square;stroke-linejoin:miter;stroke-miterlimit:4;stroke-dasharray:none;stroke-dashoffset:0;stroke-opacity:1;marker:none;paint-order:normal" cx="285.357" cy="898.234" r="1.98"/><path d="m275 917.966 4.643-4.732 5.178 5.179 4.465-4.465 7.058 4.075M263.571 967.698l12.143 4.465M263.393 978.948l9.308 4.2" style="opacity:1;vector-effect:none;fill:#fff;fill-opacity:1;stroke:#4a90d9;stroke-width:3;stroke-linecap:square;stroke-linejoin:miter;stroke-miterlimit:4;stroke-dasharray:none;stroke-dashoffset:0;stroke-opacity:1;marker:none;paint-order:normal"/><path d="M268.571 968.948v-6.428l14.198-3.805 11.831 6.831 8.812-5.088v7.776" style="fill:none;stroke:#4a90d9;stroke-width:3;stroke-linecap:square;stroke-linejoin:miter;stroke-opacity:1;font-variant-east_asian:normal;opacity:1;vector-effect:none;fill-opacity:1;stroke-miterlimit:4;stroke-dasharray:none;stroke-dashoffset:0;marker:none;paint-order:normal"/><path d="m297.5 971.091 18.304-6.696" style="opacity:1;vector-effect:none;fill:none;fill-opacity:1;stroke:#4a90d9;stroke-width:3;stroke-linecap:square;stroke-linejoin:miter;stroke-miterlimit:4;stroke-dasharray:none;stroke-dashoffset:0;stroke-opacity:1;marker:none;paint-order:normal"/><path d="m295.714 983.591 8.929-3.928M265.357 992.163l-2.5 17.142 16.072-5 11.785 6.072 12.857-6.429v-10.714" style="fill:none;stroke:#4a90d9;stroke-width:3;stroke-linecap:square;stroke-linejoin:miter;stroke-opacity:1;font-variant-east_asian:normal;opacity:1;vector-effect:none;fill-opacity:1;stroke-miterlimit:4;stroke-dasharray:none;stroke-dashoffset:0;marker:none;paint-order:normal"/><path d="m282.59 959.841-4.733 44.107M293.571 966.538l-2.142 42.767v0M269.643 1007.52c.357 2.142 1.428 12.142 1.428 12.142l-12.142 15 60.357-1.002 1.39-47.049M296.071 1031.805l-.06-14.199" style="opacity:1;vector-effect:none;fill:none;fill-opacity:1;stroke:#4a90d9;stroke-width:3;stroke-linecap:square;stroke-linejoin:miter;stroke-miterlimit:4;stroke-dasharray:none;stroke-dashoffset:0;stroke-opacity:1;marker:none;paint-order:normal"/></g></svg>