<svg xmlns="http://www.w3.org/2000/svg" width="400" height="400" viewBox="0 0 400 400.00002"><path style="opacity:1;vector-effect:none;fill:#fff;fill-opacity:1;stroke:none;stroke-width:10;stroke-linecap:round;stroke-linejoin:miter;stroke-miterlimit:4;stroke-dasharray:none;stroke-dashoffset:0;stroke-opacity:.95686275;marker:none;paint-order:normal" d="M144.957 61.379c-29.1 0-52.527 23.427-52.527 52.527 0 60.011.504 168.696.504 168.696h170.21c29.101 0 52.528-23.427 52.528-52.528V61.38Zm-1.654 34.119c8.265 0 15.074 6.807 15.074 15.072 0 6.43-4.128 11.961-9.85 14.108v95.392l51.153-50.982v-44.201c-6.016-1.983-10.414-7.675-10.414-14.317 0-8.265 6.807-15.072 15.072-15.072 8.265 0 15.074 6.807 15.074 15.072 0 6.386-4.072 11.887-9.732 14.065v34.486l42.252-42.111a14.852 14.852 0 0 1-1.483-6.44c0-8.265 6.807-15.072 15.072-15.072 8.266 0 15.075 6.807 15.075 15.072 0 8.266-6.81 15.073-15.075 15.073-2.343 0-4.56-.563-6.546-1.536l-41.995 41.856h34.924c2.179-5.66 7.68-9.73 14.067-9.73 8.265 0 15.072 6.806 15.072 15.072 0 8.265-6.807 15.072-15.072 15.072-6.642 0-12.335-4.398-14.319-10.414h-44.705l-51.32 51.15h96.068c2.02-5.954 7.678-10.297 14.276-10.297 8.265 0 15.072 6.807 15.072 15.073 0 8.265-6.807 15.074-15.072 15.074-6.43 0-11.963-4.128-14.11-9.85H138.527v-112.27c-5.954-2.018-10.297-7.675-10.297-14.273 0-8.265 6.807-15.072 15.073-15.072zm0 10c-2.861 0-5.073 2.212-5.073 5.072 0 2.861 2.212 5.073 5.073 5.073 2.86 0 5.074-2.212 5.074-5.073 0-2.86-2.213-5.072-5.074-5.072zm61.035 0c-2.861 0-5.072 2.212-5.072 5.072 0 2.861 2.21 5.073 5.072 5.073 2.861 0 5.074-2.212 5.074-5.073 0-2.86-2.213-5.072-5.074-5.072zm61.183 0c-2.86 0-5.072 2.212-5.072 5.072 0 2.861 2.211 5.073 5.072 5.073 2.862 0 5.075-2.212 5.075-5.073 0-2.86-2.213-5.072-5.075-5.072zm.45 60.734c-2.861 0-5.075 2.212-5.075 5.073 0 2.86 2.214 5.072 5.075 5.072 2.86 0 5.072-2.212 5.072-5.072 0-2.861-2.211-5.073-5.072-5.073zm0 60.584c-2.861 0-5.075 2.212-5.075 5.073 0 2.86 2.214 5.074 5.075 5.074 2.86 0 5.072-2.214 5.072-5.074 0-2.861-2.211-5.073-5.072-5.073z"/><g style="font-style:normal;font-variant:normal;font-weight:300;font-stretch:normal;font-size:40.11950684px;line-height:1.25;font-family:Overpass;-inkscape-font-specification:'Overpass, Light';font-variant-ligatures:normal;font-variant-caps:normal;font-variant-numeric:normal;font-feature-settings:normal;text-align:start;letter-spacing:0;word-spacing:0;writing-mode:lr-tb;text-anchor:start;opacity:1;fill:#fff;fill-opacity:1;stroke:none;stroke-width:1" aria-label="SILVERBLUE"><path style="font-style:normal;font-variant:normal;font-weight:300;font-stretch:normal;font-size:40.11950684px;font-family:Overpass;-inkscape-font-specification:'Overpass, Light';font-variant-ligatures:normal;font-variant-caps:normal;font-variant-numeric:normal;font-feature-settings:normal;text-align:start;writing-mode:lr-tb;text-anchor:start;fill:#fff;fill-opacity:1;stroke-width:1" d="M101.137 343.351c5.176 0 8.867-2.808 8.867-7.783 0-5.256-4.293-7.663-8.104-9.147-3.33-1.284-6.46-2.648-6.46-5.617 0-2.407 1.966-3.972 5.256-3.972 2.808 0 4.654 1.324 5.336 2.809l2.608-.883c-.763-2.568-3.691-4.453-7.824-4.453-5.215 0-8.264 2.968-8.264 6.54 0 4.653 4.292 6.78 8.224 8.264 3.29 1.243 6.34 3.089 6.34 6.54 0 3.37-2.288 5.175-5.939 5.175-3.21 0-5.616-1.685-6.74-4.133l-2.648.963c1.124 3.05 4.614 5.697 9.348 5.697zM117.215 342.87h2.809v-28.084h-2.809zM128.42 342.87h16.73v-2.688H131.23v-25.396h-2.809zM154.77 342.87h2.047l9.588-28.084h-3.009l-6.7 21.063c-.24.802-.521 1.645-.762 2.487-.28-.842-.521-1.685-.802-2.487l-7.021-21.063h-2.969zM172.223 342.87h16.89v-2.688h-14.082V329.67h8.907v-2.647h-8.907v-9.549h13.2v-2.688h-16.008zM196.122 342.87h2.808v-12.558h6.34l6.017 12.558h3.09l-6.22-12.678c5.096-.802 6.942-4.293 6.942-7.703 0-3.771-2.046-7.703-8.666-7.703h-10.31zm2.808-15.085v-10.471h7.583c4.614 0 5.898 3.089 5.898 5.295 0 2.528-1.485 5.176-5.898 5.176zM222.294 314.786v28.084h9.95c6.9 0 8.946-4.052 8.946-7.864 0-3.851-2.367-6.178-5.416-6.94 2.648-1.003 4.413-3.09 4.413-5.938 0-3.65-2.006-7.342-8.585-7.342zm8.625 12.277h-5.817v-9.75h6.74c4.694 0 5.737 2.448 5.737 4.735 0 3.049-2.246 5.015-6.66 5.015zm1.806 13.28h-7.623V329.51h6.299c5.737 0 7.181 2.768 7.181 5.737 0 2.568-1.243 5.095-5.857 5.095zM248.23 342.87h16.73v-2.688H251.04v-25.396h-2.809zM279.99 343.351c6.019 0 9.63-3.089 9.63-10.912v-17.653h-2.809v17.653c0 6.7-3.21 8.385-6.82 8.385-3.611 0-6.82-1.685-6.82-8.385v-17.653h-2.809v17.653c0 7.823 3.61 10.912 9.629 10.912zM297.831 342.87h16.89v-2.688H300.64V329.67h8.906v-2.647h-8.906v-9.549h13.199v-2.688h-16.008Z" transform="translate(0 -8.807)"/></g></svg>
